HIERARCHY
ROOT ui
{
	 OFFSET 0 0 0
	 CHANNELS 3 XPosition YPosition Z Position
	 EndSite
	 {
	 OFFSET 0 -1 0
	 }
}
ROOT li
{
	 OFFSET 0 0 0
	 CHANNELS 3 XPosition YPosition Z Position
	 EndSite
	 {
	 OFFSET 0 -1 0
	 }
}
ROOT ul
{
	 OFFSET 0 0 0
	 CHANNELS 3 XPosition YPosition Z Position
	 EndSite
	 {
	 OFFSET 0 -1 0
	 }
}
ROOT ll
{
	 OFFSET 0 0 0
	 CHANNELS 3 XPosition YPosition Z Position
	 EndSite
	 {
	 OFFSET 0 -1 0
	 }
}
ROOT tt
{
	 OFFSET 0 0 0
	 CHANNELS 3 XPosition YPosition Z Position
	 EndSite
	 {
	 OFFSET 0 -1 0
	 }
}
ROOT tb
{
	 OFFSET 0 0 0
	 CHANNELS 3 XPosition YPosition Z Position
	 EndSite
	 {
	 OFFSET 0 -1 0
	 }
}
ROOT td
{
	 OFFSET 0 0 0
	 CHANNELS 3 XPosition YPosition Z Position
	 EndSite
	 {
	 OFFSET 0 -1 0
	 }
}
ROOT v
{
	 OFFSET 0 0 0
	 CHANNELS 3 XPosition YPosition Z Position
	 EndSite
	 {
	 OFFSET 0 -1 0
	 }
}
ROOT bn
{
	 OFFSET 0 0 0
	 CHANNELS 3 XPosition YPosition Z Position
	 EndSite
	 {
	 OFFSET 0 -1 0
	 }
}
MOTION
Frames: 21
Frame Time: 0.002
0.013623021125793456	7.469689846038818E-4	0		0.49941259765625	-2.32610791015625	0		-1.1487772216796874	0.30490261840820315	0		-0.6695452880859375	-2.570916748046875	0		1.5188614501953126	-0.444769775390625	0		3.274017822265625	-0.32011282348632814	0		4.58293896484375	-0.39952505493164064	0		5.86516796875	0.23692373657226562	0		-0.2890653686523437	5.86117724609375	0		
-0.011090508460998535	7.768800258636475E-4	0		0.45097198486328127	-2.31667919921875	0		-1.138527587890625	0.3033240051269531	0		-0.6301071166992187	-2.570919189453125	0		1.5222315673828124	-0.44109100341796875	0		3.291239501953125	-0.32555218505859373	0		4.57429248046875	-0.39648828125	0		5.865375	0.23687327575683595	0		-0.3931128540039063	5.8614169921875	0		
0.004287088871002197	0.006190598964691162	0		0.4814147033691406	-2.315471435546875	0		-1.1382578125	0.30290789794921874	0		-0.6904227294921875	-2.554364990234375	0		1.5327117919921875	-0.4305152587890625	0		3.313083251953125	-0.2910512084960937	0		4.59280029296875	-0.383866943359375	0		5.8805498046875	0.23453797912597657	0		-0.25984304809570313	5.8799814453125	0		
-0.0074542899131774904	0.0040317788124084476	0		0.4538482971191406	-2.314357666015625	0		-1.1479693603515626	0.3036554870605469	0		-0.6211264038085937	-2.56381005859375	0		1.52896240234375	-0.4347137145996094	0		3.2792529296875	-0.2996891784667969	0		4.58515673828125	-0.38083740234375	0		5.86738671875	0.26268508911132815	0		-0.4234732971191406	5.8421416015625	0		
0.014770614624023437	-6.408699750900268E-4	0		0.47818133544921876	-2.320036376953125	0		-1.15175732421875	0.299321533203125	0		-0.7024601440429687	-2.54791943359375	0		1.5292747802734374	-0.4349667663574219	0		3.291740966796875	-0.28803463745117186	0		4.58546630859375	-0.38092730712890627	0		5.87109716796875	0.25213917541503905	0		-0.29017355346679685	5.86173779296875	0		
-0.004999485015869141	-0.004657649993896484	0		0.452624755859375	-2.317937744140625	0		-1.16059033203125	0.2920758056640625	0		-0.6202778930664062	-2.564534423828125	0		1.5295863037109374	-0.4352113342285156	0		3.28112255859375	-0.2830194396972656	0		4.5888662109375	-0.3750592041015625	0		5.87615869140625	0.22943785095214844	0		-0.2618720703125	5.881966796875	0		
0.015345721244812012	-0.0012770930528640746	0		0.4550746765136719	-2.315259033203125	0		-1.1603189697265626	0.2917032470703125	0		-0.6867005004882812	-2.55385791015625	0		1.5447708740234376	-0.4436748962402344	0		3.29680322265625	-0.2583975830078125	0		4.589171875	-0.37513882446289065	0		5.86784228515625	0.23492295837402344	0		-0.26188546752929687	5.88164013671875	0		
-0.009066610336303712	0.018800018310546875	0		0.4595299072265625	-2.311599609375	0		-1.160052978515625	0.29134417724609374	0		-0.6581449584960938	-2.544620849609375	0		1.5481185302734375	-0.44094622802734373	0		3.2870517578125	-0.26138385009765625	0		4.58768408203125	-0.3611849060058594	0		5.87032763671875	0.2573139343261719	0		-0.2618957824707031	5.88132568359375	0		
-0.004161561012268066	-0.005563354015350342	0		0.45787936401367185	-2.313837158203125	0		-1.1638564453125	0.2870607299804688	0		-0.6916746826171875	-2.539426513671875	0		1.5484097900390625	-0.4411630859375	0		3.3205888671875	-0.24502119445800782	0		4.5930771484375	-0.3543350524902344	0		5.8776884765625	0.2622210998535156	0		-0.42353631591796875	5.84047021484375	0		
-0.008843213081359864	-0.001767490029335022	0		0.45823828125	-2.31409619140625	0		-1.102800537109375	0.2738091735839844	0		-0.6662178955078125	-2.534114990234375	0		1.539732666015625	-0.4382382507324219	0		3.283966796875	-0.2375952911376953	0		4.5833662109375	-0.3532607727050781	0		5.86676708984375	0.3110419006347656	0		-0.2912037353515625	5.86117333984375	0		
-0.018449735641479493	0.008111733436584473	0		0.4565428466796875	-2.3163173828125	0		-1.185666259765625	0.2677474365234375	0		-0.7018402709960937	-2.531869140625	0		1.5459005126953125	-0.4445362548828125	0		3.292307373046875	-0.2318546905517578	0		4.59360546875	-0.354497314453125	0		5.8603291015625	0.2800833740234375	0		-0.26288442993164063	5.881466796875	0		
-0.003436218023300171	-0.006376132011413575	0		0.4588817138671875	-2.314594482421875	0		-1.105533935546875	0.26123870849609376	0		-0.6845556030273438	-2.534412841796875	0		1.5141312255859376	-0.4452624206542969	0		3.280678466796875	-0.22282049560546874	0		4.590025390625	-0.34253729248046877	0		5.87474658203125	0.2777420654296875	0		-0.39323001098632815	5.85815380859375	0		
0.0069267678260803225	0.003214287042617798	0		0.46527093505859374	-2.307929443359375	0		-1.105328125	0.26094659423828126	0		-0.6870084838867188	-2.51764892578125	0		1.555323974609375	-0.448089599609375	0		3.318225341796875	-0.20153611755371093	0		4.6033232421875	-0.33785040283203127	0		5.8778818359375	0.29826290893554686	0		-0.394180908203125	5.8588984375	0		
-0.004896567821502685	0.001139057993888855	0		0.4874276123046875	-2.315502197265625	0		-1.1182928466796875	0.2498590850830078	0		-0.688768798828125	-2.5198916015625	0		1.546586669921875	-0.44517098999023436	0		3.27339599609375	-0.2040322723388672	0		4.5955830078125	-0.3348692321777344	0		5.8736875	0.2878578796386719	0		-0.3960943603515625	5.86066259765625	0		
-0.0028152899742126467	-0.0071452298164367675	0		0.46170965576171874	-2.313358154296875	0		-1.131260009765625	0.2387766571044922	0		-0.653564208984375	-2.5236845703125	0		1.5437376708984376	-0.4493487548828125	0		3.2808701171875	-0.18632649230957032	0		4.60091064453125	-0.32710504150390624	0		5.8717568359375	0.29808453369140625	0		-0.2900262451171875	5.85881201171875	0		
-0.0075529241561889645	-0.003327653884887695	0		0.48587326049804686	-2.318965576171875	0		-1.1232724609375	0.2243827362060547	0		-0.6971052856445312	-2.509296142578125	0		1.5529012451171875	-0.4527135925292969	0		3.271166015625	-0.18037876892089844	0		4.60598291015625	-0.33635760498046874	0		5.872412109375	0.2649212341308594	0		-0.29090850830078124	5.8595654296875	0		
-0.007344730854034424	-0.0035871620178222654	0		0.43623956298828126	-2.310471923828125	0		-1.1221871337890625	0.21609326171875	0		-0.681937744140625	-2.514788818359375	0		1.5531158447265625	-0.4529508361816406	0		3.2957177734375	-0.15795263671875	0		4.60928515625	-0.3305968017578125	0		5.87068896484375	0.30794094848632814	0		-0.3948022155761719	5.85885595703125	0		
0.02497740173339844	0.0026719748973846437	0		0.4644869689941406	-2.311146484375	0		-1.1251474609375	0.20386282348632812	0		-0.6874600830078125	-2.499971923828125	0		1.556402099609375	-0.4492386474609375	0		3.28488232421875	-0.16200845336914063	0		4.6128232421875	-0.3098476867675781	0		5.87135791015625	0.27472467041015625	0		-0.26134185791015624	5.8786005859375	0		
-0.0065845131874084474	0.0158829288482666	0		0.4289239807128906	-2.299870361328125	0		-1.1171190185546875	0.18946609497070313	0		-0.660072509765625	-2.492649169921875	0		1.5535889892578125	-0.4534395751953125	0		3.29240771484375	-0.14333993530273437	0		4.603083984375	-0.3089073486328125	0		5.8802490234375	0.30002847290039064	0		-0.26117318725585936	5.87833251953125	0		
0.018379459381103514	-0.004756435871124267	0		0.4630057373046875	-2.314638916015625	0		-1.1300189208984375	0.17837794494628906	0		-0.6936975708007812	-2.48742041015625	0		1.5508004150390624	-0.4576436767578125	0		3.28275	-0.1384186706542969	0		4.60438232421875	-0.307133056640625	0		5.8712314453125	0.310406982421875	0		-0.29027752685546876	5.85849462890625	0		
-0.006325407981872559	-0.00465874719619751	0		0.46129977416992185	-2.31687744140625	0		-1.1259825439453126	0.16103021240234375	0		-0.6913421020507813	-2.485734619140625	0		1.5529498291015624	-0.4679261779785156	0		3.27225390625	-0.12448683929443359	0		4.60876806640625	-0.30140582275390626	0		5.870759765625	0.315284912109375	0		-0.26076986694335935	5.87778173828125	0		
